{
  "accessors": [
    {
      "bufferView": 2,
      "componentType": 5126,
      "count": 1682,
      "max": [
        0.99190902709960938,
        0.99190998077392578,
        1.0269759893417358
      ],
      "min": [
        -0.99190902709960938,
        -0.99190902709960938,
        -1.0063519477844238
      ],
      "type": "VEC3"
    },
    {
      "bufferView": 2,
      "byteOffset": 20184,
      "componentType": 5126,
      "count": 1682,
      "max": [
        1,
        1,
        1
      ],
      "min": [
        -1,
        -1,
        -1
      ],
      "type": "VEC3"
    },
    {
      "bufferView": 3,
      "componentType": 5126,
      "count": 1682,
      "max": [
        0.99981266260147095,
        0.41129201650619507,
        0.999977707862854,
        1
      ],
      "min": [
        -0.83480507135391235,
        -0.78859412670135498,
        -0.99997740983963013,
        1
      ],
      "type": "VEC4"
    },
    {
      "bufferView": 1,
      "componentType": 5126,
      "count": 1682,
      "max": [
        0.97993600368499756,
        0.98033201694488525
      ],
      "min": [
        0.0096680000424385071,
        0.0096680000424385071
      ],
      "type": "VEC2"
    },
    {
      "bufferView": 0,
      "componentType": 5125,
      "count": 9840,
      "max": [
        1681
      ],
      "min": [
        0
      ],
      "type": "SCALAR"
    },
    {
      "bufferView": 2,
      "byteOffset": 40368,
      "componentType": 5126,
      "count": 2302,
      "max": [
        0.98472398519515991,
        0.98472398519515991,
        0.89356899261474609
      ],
      "min": [
        -0.98472398519515991,
        -0.98472398519515991,
        -0.993569016456604
      ],
      "type": "VEC3"
    },
    {
      "bufferView": 2,
      "byteOffset": 67992,
      "componentType": 5126,
      "count": 2302,
      "max": [
        1,
        1,
        1
      ],
      "min": [
        -1,
        -1,
        -1
      ],
      "type": "VEC3"
    },
    {
      "bufferView": 3,
      "byteOffset": 26912,
      "componentType": 5126,
      "count": 2302,
      "max": [
        1,
        0.78859591484069824,
        0.99980002641677856,
        1
      ],
      "min": [
        -0.090173356235027313,
        -0.45848298072814941,
        -0.99980729818344116,
        1
      ],
      "type": "VEC4"
    },
    {
      "bufferView": 1,
      "byteOffset": 13456,
      "componentType": 5126,
      "count": 2302,
      "max": [
        0.97881197929382324,
        0.97797501087188721
      ],
      "min": [
        0.0096680000424385071,
        0.0096680000424385071
      ],
      "type": "VEC2"
    },
    {
      "bufferView": 0,
      "byteOffset": 39360,
      "componentType": 5125,
      "count": 13380,
      "max": [
        2301
      ],
      "min": [
        0
      ],
      "type": "SCALAR"
    }
  ],
  "asset": {
    "extras": {
      "author": "kand8998 (https://sketchfab.com/KaitlynAndrus)",
      "license": "CC-BY-4.0 (http://creativecommons.org/licenses/by/4.0/)",
      "source": "https://sketchfab.com/3d-models/eye-textured-ad4315627fb04ab3aa2a663973db9f89",
      "title": "Eye (Textured)"
    },
    "generator": "Sketchfab-9.7.0",
    "version": "2.0"
  },
  "bufferViews": [
    {
      "buffer": 0,
      "byteLength": 92880,
      "byteOffset": 0,
      "name": "floatBufferViews",
      "target": 34963
    },
    {
      "buffer": 0,
      "byteLength": 31872,
      "byteOffset": 92880,
      "byteStride": 8,
      "name": "floatBufferViews",
      "target": 34962
    },
    {
      "buffer": 0,
      "byteLength": 95616,
      "byteOffset": 124752,
      "byteStride": 12,
      "name": "floatBufferViews",
      "target": 34962
    },
    {
      "buffer": 0,
      "byteLength": 63744,
      "byteOffset": 220368,
      "byteStride": 16,
      "name": "floatBufferViews",
      "target": 34962
    }
  ],
  "buffers": [
    {
      "byteLength": 284112,
      "uri": "eye.bin"
    }
  ],
  "images": [
    {
      "uri": "textures/Cornea_baseColor.png"
    },
    {
      "uri": "textures/Cornea_metallicRoughness.png"
    },
    {
      "uri": "textures/Cornea_emissive.jpeg"
    },
    {
      "uri": "textures/Cornea_normal.png"
    },
    {
      "uri": "textures/Cleareye_baseColor.png"
    },
    {
      "uri": "textures/Cleareye_metallicRoughness.png"
    },
    {
      "uri": "textures/Cleareye_emissive.jpeg"
    },
    {
      "uri": "textures/Cleareye_normal.png"
    }
  ],
  "materials": [
    {
      "alphaMode": "BLEND",
      "doubleSided": true,
      "emissiveFactor": [
        1,
        1,
        1
      ],
      "emissiveTexture": {
        "index": 2,
        "texCoord": 0
      },
      "name": "Cornea",
      "normalTexture": {
        "index": 3,
        "scale": 1,
        "texCoord": 0
      },
      "occlusionTexture": {
        "index": 1,
        "strength": 1,
        "texCoord": 0
      },
      "pbrMetallicRoughness": {
        "baseColorFactor": [
          1,
          1,
          1,
          1
        ],
        "baseColorTexture": {
          "index": 0,
          "texCoord": 0
        },
        "metallicFactor": 1,
        "metallicRoughnessTexture": {
          "index": 1,
          "texCoord": 0
        },
        "roughnessFactor": 1
      }
    },
    {
      "alphaMode": "BLEND",
      "doubleSided": true,
      "emissiveFactor": [
        1,
        1,
        1
      ],
      "emissiveTexture": {
        "index": 6,
        "texCoord": 0
      },
      "name": "Cleareye",
      "normalTexture": {
        "index": 7,
        "scale": 1,
        "texCoord": 0
      },
      "occlusionTexture": {
        "index": 5,
        "strength": 1,
        "texCoord": 0
      },
      "pbrMetallicRoughness": {
        "baseColorFactor": [
          0.52363409964602825,
          0.52363409964602825,
          0.52363409964602825,
          1
        ],
        "baseColorTexture": {
          "index": 4,
          "texCoord": 0
        },
        "metallicFactor": 1,
        "metallicRoughnessTexture": {
          "index": 5,
          "texCoord": 0
        },
        "roughnessFactor": 1
      }
    }
  ],
  "meshes": [
    {
      "name": "defaultMaterial",
      "primitives": [
        {
          "attributes": {
            "NORMAL": 1,
            "POSITION": 0,
            "TANGENT": 2,
            "TEXCOORD_0": 3
          },
          "indices": 4,
          "material": 1,
          "mode": 4
        }
      ]
    },
    {
      "name": "defaultMaterial",
      "primitives": [
        {
          "attributes": {
            "NORMAL": 6,
            "POSITION": 5,
            "TANGENT": 7,
            "TEXCOORD_0": 8
          },
          "indices": 9,
          "material": 0,
          "mode": 4
        }
      ]
    }
  ],
  "nodes": [
    {
      "children": [
        1
      ],
      "name": "RootNode (gltf orientation matrix)",
      "rotation": [
        -0.70710678118654746,
        -0,
        -0,
        0.70710678118654757
      ]
    },
    {
      "children": [
        2
      ],
      "name": "RootNode (model correction matrix)"
    },
    {
      "children": [
        3,
        5
      ],
      "matrix": [
        1,
        0,
        0,
        0,
        0,
        -4.3711390063094768e-08,
        0.999999999999999,
        0,
        0,
        -0.999999999999999,
        -4.3711390063094768e-08,
        0,
        0,
        0,
        0,
        1
      ],
      "name": "Collada visual scene group"
    },
    {
      "children": [
        4
      ],
      "name": "OuterEye_low"
    },
    {
      "mesh": 0,
      "name": "defaultMaterial"
    },
    {
      "children": [
        6
      ],
      "name": "CorneaPupil_low"
    },
    {
      "mesh": 1,
      "name": "defaultMaterial"
    }
  ],
  "samplers": [
    {
      "magFilter": 9729,
      "minFilter": 9987,
      "wrapS": 10497,
      "wrapT": 10497
    }
  ],
  "scene": 0,
  "scenes": [
    {
      "name": "OSG_Scene",
      "nodes": [
        0
      ]
    }
  ],
  "textures": [
    {
      "sampler": 0,
      "source": 0
    },
    {
      "sampler": 0,
      "source": 1
    },
    {
      "sampler": 0,
      "source": 2
    },
    {
      "sampler": 0,
      "source": 3
    },
    {
      "sampler": 0,
      "source": 4
    },
    {
      "sampler": 0,
      "source": 5
    },
    {
      "sampler": 0,
      "source": 6
    },
    {
      "sampler": 0,
      "source": 7
    }
  ]
}

